<svg xmlns="http://www.w3.org/2000/svg" viewBox="0 0 512 512" width="512" height="512">
  <defs>
    <linearGradient id="bg" x1="0" y1="0" x2="1" y2="1">
      <stop offset="0" stop-color="#3987e5"/>
      <stop offset="1" stop-color="#1c5cab"/>
    </linearGradient>
  </defs>

  <!-- rounded app-style tile -->
  <rect x="16" y="16" width="480" height="480" rx="112" fill="url(#bg)"/>

  <!-- price tag, tilted -->
  <g transform="rotate(-18 256 256)">
    <path d="M150 190
             L295 190
             Q312 190 324 202
             L410 288
             Q422 300 410 312
             L324 398
             Q312 410 295 410
             L150 410
             Q132 410 132 392
             L132 208
             Q132 190 150 190 Z"
          fill="#fcfcfb" opacity="0.96"/>
    <circle cx="185" cy="243" r="17" fill="#1c5cab"/>
  </g>

  <!-- lightning bolt punched over the tag -->
  <path d="M300 96 L204 288 L266 288 L232 416 L356 224 L288 224 L332 96 Z"
        fill="#eda100" stroke="#0d366b" stroke-width="14" stroke-linejoin="round"/>
</svg>
